<svg width="256" height="55" viewBox="0 0 256 55" fill="none" xmlns="http://www.w3.org/2000/svg">
<path d="M102.186 36.3188C100.911 37.0297 99.4713 37.3851 97.8671 37.3851C96.2629 37.3851 94.8026 37.0297 93.4864 36.3188C92.2112 35.566 91.2034 34.5624 90.463 33.3078C89.7637 32.0114 89.4141 30.5478 89.4141 28.9169C89.4141 27.286 89.7637 25.8432 90.463 24.5887C91.2034 23.2923 92.2112 22.2887 93.4864 21.5777C94.8026 20.825 96.2629 20.4486 97.8671 20.4486C99.4713 20.4486 100.911 20.825 102.186 21.5777C103.502 22.2887 104.51 23.2923 105.21 24.5887C105.95 25.8432 106.32 27.286 106.32 28.9169C106.32 30.5478 105.95 32.0114 105.21 33.3078C104.51 34.5624 103.502 35.566 102.186 36.3188Z" fill="#333333"/>
<path fill-rule="evenodd" clip-rule="evenodd" d="M219.217 52.3081C219.86 50.8343 220.182 49.2054 220.182 47.4215V45.7906C220.182 45.0797 220.244 44.4315 220.367 43.8461C220.532 43.2606 220.799 42.5288 221.169 41.6506C221.211 41.6088 221.231 41.567 221.231 41.5251C221.231 41.4415 221.252 41.3788 221.293 41.337L230.054 21.0759H233.88V13.235H217.344V21.0759H221.972L216.11 35.8797L215.987 36.256C215.945 36.3815 215.925 36.5069 215.925 36.6324C215.801 36.256 215.616 35.7751 215.37 35.1897C215.205 34.8551 215.061 34.5206 214.938 34.186C214.814 33.8096 214.67 33.4542 214.506 33.1196L208.768 21.0759H213.025V13.235H195.749V21.0759H199.574L210.742 43.2188C210.824 43.3442 210.886 43.4906 210.927 43.6579C210.968 43.7833 211.03 43.9088 211.112 44.0343C211.318 44.4943 211.462 44.9124 211.544 45.2888C211.667 45.707 211.729 46.1252 211.729 46.5434V47.3588C211.729 48.3206 211.441 49.0316 210.865 49.4916C210.289 49.9516 209.529 50.1816 208.582 50.1816C207.965 50.1816 207.39 49.9934 206.855 49.617C206.361 49.2406 205.95 48.697 205.621 47.9861C205.333 47.2752 205.189 46.4388 205.189 45.477V42.1524H197.908V54.4H0V18.276L11.8388 17.4203V21.0759H16.5281V36.7578H11.8388V44.5988H31.398V36.7578H24.2407V26.7841C24.2407 25.6132 24.4669 24.5469 24.9194 23.585C25.413 22.6232 26.0506 21.8705 26.8321 21.3268C27.6548 20.7414 28.5392 20.4486 29.4853 20.4486C30.3902 20.4486 31.2129 20.6577 31.9533 21.0759C32.6937 21.4941 33.2696 22.0587 33.6809 22.7696C34.1334 23.4387 34.3596 24.1914 34.3596 25.0278V27.4741H41.5169V15.2751L52.5487 14.4777C52.3814 14.5624 52.2153 14.65 52.0504 14.7404C49.5001 16.1204 47.4846 18.065 46.0037 20.5741C44.564 23.0414 43.8442 25.8223 43.8442 28.9169C43.8442 32.0533 44.564 34.8551 46.0037 37.3224C47.4434 39.7897 49.4384 41.7342 51.9887 43.1561C54.5801 44.5361 57.5006 45.2261 60.7502 45.2261C63.9587 45.2261 66.838 44.5361 69.3883 43.1561C71.9798 41.7342 73.9953 39.7897 75.435 37.3224C76.9158 34.8133 77.6562 32.0114 77.6562 28.9169C77.6562 25.7805 76.9364 22.9787 75.4967 20.5114C74.057 18.0441 72.0415 16.1204 69.45 14.7404C68.5194 14.2216 67.5423 13.7974 66.5186 13.4679L177.178 5.46926V8.53039H182.422V36.7578H177.424V44.5988H195.379V36.7578H190.135V4.53268L252.843 0L256 45.1418L219.217 52.3081ZM89.1056 43.1561C91.697 44.5361 94.6175 45.2261 97.8671 45.2261C101.076 45.2261 103.955 44.5361 106.505 43.1561C109.097 41.7342 111.112 39.7897 112.552 37.3224C114.033 34.8133 114.773 32.0114 114.773 28.9169C114.773 25.7805 114.053 22.9787 112.614 20.5114C111.174 18.0441 109.158 16.1204 106.567 14.7404C104.017 13.3186 101.117 12.6077 97.8671 12.6077C94.6587 12.6077 91.7587 13.3186 89.1673 14.7404C86.617 16.1204 84.6014 18.065 83.1206 20.5741C81.6809 23.0414 80.9611 25.8223 80.9611 28.9169C80.9611 32.0533 81.6809 34.8551 83.1206 37.3224C84.5603 39.7897 86.5553 41.7342 89.1056 43.1561ZM122.335 36.7578H117.646V44.5988H134.244V36.7578H130.048V27.976C130.048 26.5541 130.315 25.2787 130.85 24.1496C131.385 23.0205 132.146 22.1214 133.133 21.4523C134.12 20.7832 135.19 20.4486 136.341 20.4486C138.316 20.4486 139.858 21.1177 140.969 22.4559C142.121 23.7941 142.697 25.6341 142.697 27.976V36.7578H138.378V44.5988H154.79V36.7578H150.471V27.976C150.471 26.5541 150.738 25.2787 151.273 24.1496C151.849 23.0205 152.61 22.1214 153.556 21.4523C154.543 20.7832 155.633 20.4486 156.826 20.4486C158.801 20.4486 160.343 21.1177 161.454 22.4559C162.564 23.7941 163.12 25.6341 163.12 27.976V36.7578H158.924V44.5988H174.781V36.7578H171.017V26.8469C171.017 22.3723 169.845 18.8805 167.5 16.3713C165.156 13.8622 161.906 12.6077 157.752 12.6077C155.571 12.6077 153.597 13.0677 151.828 13.9877C150.06 14.9077 148.661 16.1832 147.633 17.8141C146.645 16.1413 145.35 14.8659 143.746 13.9877C142.141 13.0677 140.27 12.6077 138.131 12.6077C136.321 12.6077 134.655 12.9631 133.133 13.6741C131.611 14.3432 130.336 15.305 129.308 16.5595V13.235H117.646V21.0759H122.335V36.7578Z" fill="#333333"/>
<path d="M65.0693 36.3188C63.7941 37.0297 62.3544 37.3851 60.7502 37.3851C59.146 37.3851 57.6857 37.0297 56.3695 36.3188C55.0943 35.566 54.0865 34.5624 53.3461 33.3078C52.6468 32.0114 52.2972 30.5478 52.2972 28.9169C52.2972 27.286 52.6468 25.8432 53.3461 24.5887C54.0865 23.2923 55.0943 22.2887 56.3695 21.5777C57.6857 20.825 59.146 20.4486 60.7502 20.4486C62.3544 20.4486 63.7941 20.825 65.0693 21.5777C66.3856 22.2887 67.3933 23.2923 68.0926 24.5887C68.833 25.8432 69.2032 27.286 69.2032 28.9169C69.2032 30.5478 68.833 32.0114 68.0926 33.3078C67.3933 34.5624 66.3856 35.566 65.0693 36.3188Z" fill="#333333"/>
</svg>
