<svg width="18" height="18" viewBox="0 0 18 18" fill="none" xmlns="http://www.w3.org/2000/svg">
<path d="M9.95025 3.15675C9.84146 3.05831 9.69852 3.00627 9.55191 3.01173C9.4053 3.01718 9.26662 3.07971 9.16545 3.18596C9.06429 3.29222 9.00864 3.43379 9.01037 3.5805C9.01211 3.7272 9.0711 3.86742 9.17475 3.97125L13.863 8.4375H2.8125C2.66332 8.4375 2.52024 8.49676 2.41475 8.60225C2.30926 8.70774 2.25 8.85081 2.25 9C2.25 9.14918 2.30926 9.29226 2.41475 9.39775C2.52024 9.50323 2.66332 9.5625 2.8125 9.5625H13.863L9.17475 14.028C9.06664 14.1308 9.00381 14.2724 9.00008 14.4216C8.99636 14.5707 9.05204 14.7153 9.15487 14.8234C9.25771 14.9315 9.39928 14.9943 9.54845 14.998C9.69761 15.0018 9.84214 14.9461 9.95025 14.8432L15.5153 9.543C15.637 9.4274 15.7163 9.27416 15.7402 9.108C15.754 9.03613 15.7537 8.96227 15.7395 8.8905C15.7152 8.72485 15.636 8.57217 15.5145 8.457L9.95025 3.15675Z" fill="black"/>
</svg>
