<svg width="25" height="24" viewBox="0 0 25 24" fill="none" xmlns="http://www.w3.org/2000/svg">
<path d="M13.3333 9.125V10.75H14.0833C14.2491 10.75 14.4081 10.8158 14.5253 10.9331C14.6425 11.0503 14.7083 11.2092 14.7083 11.375C14.7083 11.5408 14.6425 11.6997 14.5253 11.8169C14.4081 11.9342 14.2491 12 14.0833 12H12.8333C12.8123 12.0001 12.7913 11.9991 12.7703 11.997C12.6834 12.0058 12.5955 11.9963 12.5125 11.969C12.4294 11.9418 12.353 11.8974 12.2882 11.8388C12.2234 11.7802 12.1715 11.7086 12.1361 11.6287C12.1006 11.5488 12.0823 11.4624 12.0823 11.375V9.125C12.0823 8.95911 12.1482 8.80001 12.2655 8.6827C12.3829 8.5654 12.542 8.4995 12.7078 8.4995C12.8737 8.4995 13.0328 8.5654 13.1501 8.6827C13.2674 8.80001 13.3333 8.95911 13.3333 9.125ZM12.7083 6.005C12.0846 6.005 11.4669 6.12786 10.8906 6.36657C10.3143 6.60528 9.79066 6.95516 9.34959 7.39624C8.90851 7.83732 8.55863 8.36096 8.31992 8.93725C8.08121 9.51355 7.95834 10.1312 7.95834 10.755C7.95834 11.3788 8.08121 11.9964 8.31992 12.5727C8.55863 13.149 8.90851 13.6727 9.34959 14.1138C9.79066 14.5548 10.3143 14.9047 10.8906 15.1434C11.4669 15.3821 12.0846 15.505 12.7083 15.505C13.9681 15.505 15.1763 15.0046 16.0671 14.1138C16.9579 13.223 17.4583 12.0148 17.4583 10.755C17.4583 9.49522 16.9579 8.28704 16.0671 7.39624C15.1763 6.50545 13.9681 6.005 12.7083 6.005ZM9.20834 10.755C9.20834 9.82674 9.57709 8.9365 10.2335 8.28013C10.8898 7.62375 11.7801 7.255 12.7083 7.255C13.6366 7.255 14.5268 7.62375 15.1832 8.28013C15.8396 8.9365 16.2083 9.82674 16.2083 10.755C16.2083 11.6833 15.8396 12.5735 15.1832 13.2299C14.5268 13.8863 13.6366 14.255 12.7083 14.255C11.7801 14.255 10.8898 13.8863 10.2335 13.2299C9.57709 12.5735 9.20834 11.6833 9.20834 10.755ZM6.83334 2C6.1703 2 5.53442 2.26339 5.06558 2.73223C4.59674 3.20107 4.33334 3.83696 4.33334 4.5V19.5C4.33334 20.163 4.59674 20.7989 5.06558 21.2678C5.53442 21.7366 6.1703 22 6.83334 22H20.0833C20.2823 22 20.473 21.921 20.6137 21.7803C20.7543 21.6397 20.8333 21.4489 20.8333 21.25C20.8333 21.0511 20.7543 20.8603 20.6137 20.7197C20.473 20.579 20.2823 20.5 20.0833 20.5H6.83334C6.56813 20.5 6.31377 20.3946 6.12624 20.2071C5.9387 20.0196 5.83334 19.7652 5.83334 19.5H20.0833C20.2823 19.5 20.473 19.421 20.6137 19.2803C20.7543 19.1397 20.8333 18.9489 20.8333 18.75V4.5C20.8333 4.1717 20.7687 3.84661 20.643 3.54329C20.5174 3.23998 20.3333 2.96438 20.1011 2.73223C19.869 2.50009 19.5934 2.31594 19.2901 2.1903C18.9867 2.06466 18.6616 2 18.3333 2H6.83334ZM19.3333 18H5.83334V4.5C5.83334 4.23478 5.9387 3.98043 6.12624 3.79289C6.31377 3.60536 6.56813 3.5 6.83334 3.5H18.3333C18.5986 3.5 18.8529 3.60536 19.0405 3.79289C19.228 3.98043 19.3333 4.23478 19.3333 4.5V18Z" fill="black"/>
</svg>
