<svg width="24" height="24" viewBox="0 0 24 24" fill="none" xmlns="http://www.w3.org/2000/svg">
<path d="M11.75 11.375C11.75 11.4624 11.7683 11.5488 11.8037 11.6287C11.8392 11.7086 11.891 11.7802 11.9559 11.8388C12.0207 11.8974 12.0971 11.9418 12.1802 11.969C12.2632 11.9963 12.351 12.0058 12.438 11.997C12.458 11.999 12.478 12 12.5 12H13.75C13.9158 12 14.0747 11.9342 14.1919 11.8169C14.3092 11.6997 14.375 11.5408 14.375 11.375C14.375 11.2092 14.3092 11.0503 14.1919 10.9331C14.0747 10.8158 13.9158 10.75 13.75 10.75H13V9.125C13 8.95924 12.9342 8.80027 12.8169 8.68306C12.6997 8.56585 12.5408 8.5 12.375 8.5C12.2092 8.5 12.0503 8.56585 11.9331 8.68306C11.8158 8.80027 11.75 8.95924 11.75 9.125V11.375ZM4 4.5C4 3.83696 4.26339 3.20107 4.73223 2.73223C5.20107 2.26339 5.83696 2 6.5 2H18C18.3283 2 18.6534 2.06466 18.9567 2.1903C19.26 2.31594 19.5356 2.50009 19.7678 2.73223C19.9999 2.96438 20.1841 3.23998 20.3097 3.54329C20.4353 3.84661 20.5 4.1717 20.5 4.5V18.75C20.5 18.9489 20.421 19.1397 20.2803 19.2803C20.1397 19.421 19.9489 19.5 19.75 19.5H5.5C5.5 19.7652 5.60536 20.0196 5.79289 20.2071C5.98043 20.3946 6.23478 20.5 6.5 20.5H19.75C19.9489 20.5 20.1397 20.579 20.2803 20.7197C20.421 20.8603 20.5 21.0511 20.5 21.25C20.5 21.4489 20.421 21.6397 20.2803 21.7803C20.1397 21.921 19.9489 22 19.75 22H6.5C5.83696 22 5.20107 21.7366 4.73223 21.2678C4.26339 20.7989 4 20.163 4 19.5V4.5ZM12.375 6.005C11.7512 6.005 11.1336 6.12786 10.5573 6.36657C9.98096 6.60528 9.45732 6.95516 9.01624 7.39624C8.57516 7.83732 8.22528 8.36096 7.98657 8.93725C7.74786 9.51355 7.625 10.1312 7.625 10.755C7.625 11.3788 7.74786 11.9964 7.98657 12.5727C8.22528 13.149 8.57516 13.6727 9.01624 14.1138C9.45732 14.5548 9.98096 14.9047 10.5573 15.1434C11.1336 15.3821 11.7512 15.505 12.375 15.505C13.6348 15.505 14.843 15.0046 15.7338 14.1138C16.6246 13.223 17.125 12.0148 17.125 10.755C17.125 9.49522 16.6246 8.28704 15.7338 7.39624C14.843 6.50545 13.6348 6.005 12.375 6.005Z" fill="black"/>
</svg>
