<svg width="18" height="19" viewBox="0 0 18 19" fill="none" xmlns="http://www.w3.org/2000/svg">
<path d="M3.29775 3.9155L3.3525 3.8525C3.44774 3.75724 3.574 3.69932 3.70833 3.68927C3.84267 3.67922 3.97614 3.71772 4.0845 3.79775L4.1475 3.8525L9 8.70425L13.8525 3.85175C13.9044 3.79805 13.9665 3.75523 14.0351 3.72578C14.1038 3.69634 14.1776 3.68085 14.2523 3.68024C14.327 3.67963 14.401 3.69389 14.4702 3.72221C14.5393 3.75053 14.6021 3.79232 14.6548 3.84516C14.7076 3.898 14.7494 3.96082 14.7776 4.02997C14.8059 4.09911 14.8201 4.17319 14.8194 4.24787C14.8187 4.32256 14.8031 4.39636 14.7736 4.46498C14.7441 4.53359 14.7012 4.59564 14.6475 4.6475L9.79575 9.5L14.6482 14.3525C14.7434 14.4478 14.8012 14.5742 14.8111 14.7085C14.821 14.8428 14.7824 14.9762 14.7022 15.0845L14.6475 15.1475C14.5523 15.2428 14.426 15.3007 14.2917 15.3107C14.1573 15.3208 14.0238 15.2823 13.9155 15.2023L13.8525 15.1475L9 10.2958L4.1475 15.1483C4.04136 15.2507 3.89924 15.3073 3.75176 15.3059C3.60427 15.3046 3.46322 15.2454 3.35897 15.141C3.25473 15.0367 3.19564 14.8956 3.19443 14.7481C3.19322 14.6006 3.24998 14.4585 3.3525 14.3525L8.20425 9.5L3.35175 4.6475C3.2566 4.55217 3.19881 4.42585 3.1889 4.29152C3.17899 4.15719 3.21761 4.02377 3.29775 3.9155Z" fill="#EF4444"/>
</svg>
