<svg width="18" height="18" viewBox="0 0 18 18" fill="none" xmlns="http://www.w3.org/2000/svg">
<path d="M9.61502 4.18499L9.00002 4.80149L8.38201 4.18349C7.62595 3.42752 6.60054 3.00286 5.53137 3.00293C4.46221 3.003 3.43686 3.4278 2.68089 4.18386C1.92492 4.93993 1.50027 5.96534 1.50034 7.0345C1.50041 8.10367 1.9252 9.12902 2.68126 9.88499L8.60252 15.8062C8.70798 15.9116 8.85095 15.9707 9.00002 15.9707C9.14908 15.9707 9.29205 15.9116 9.39752 15.8062L15.324 9.88349C16.0792 9.12736 16.5033 8.10236 16.5032 7.03371C16.503 5.96506 16.0786 4.94017 15.3233 4.18424C14.9485 3.80927 14.5036 3.51181 14.0139 3.30887C13.5242 3.10592 12.9992 3.00146 12.4691 3.00146C11.939 3.00146 11.4141 3.10592 10.9244 3.30887C10.4347 3.51181 9.98973 3.81002 9.61502 4.18499Z" fill="#333333"/>
</svg>
