<svg width="25" height="24" viewBox="0 0 25 24" fill="none" xmlns="http://www.w3.org/2000/svg">
<path d="M13.4867 5.57998L12.6667 6.40198L11.8427 5.57798C10.8346 4.57003 9.46738 4.00382 8.04182 4.00391C6.61626 4.00401 5.24913 4.5704 4.24117 5.57848C3.23322 6.58657 2.66701 7.95378 2.6671 9.37934C2.66719 10.8049 3.23358 12.172 4.24167 13.18L12.1367 21.075C12.2773 21.2154 12.4679 21.2943 12.6667 21.2943C12.8654 21.2943 13.056 21.2154 13.1967 21.075L21.0987 13.178C22.1056 12.1698 22.671 10.8031 22.6709 9.37828C22.6707 7.95341 22.1048 6.58689 21.0977 5.57898C20.598 5.07903 20.0048 4.68242 19.3518 4.41182C18.6989 4.14123 17.999 4.00195 17.2922 4.00195C16.5854 4.00195 15.8855 4.14123 15.2325 4.41182C14.5795 4.68242 13.9863 5.08003 13.4867 5.57998ZM20.0347 12.12L12.6667 19.485L5.30167 12.12C4.9387 11.7609 4.65029 11.3335 4.45301 10.8626C4.25572 10.3916 4.15347 9.88632 4.15211 9.37572C4.15075 8.86511 4.25032 8.35927 4.44509 7.88727C4.63986 7.41527 4.926 6.98642 5.28706 6.62537C5.64811 6.26431 6.07696 5.97818 6.54896 5.7834C7.02096 5.58863 7.5268 5.48906 8.0374 5.49042C8.54801 5.49178 9.05331 5.59404 9.52426 5.79132C9.99522 5.9886 10.4225 6.27702 10.7817 6.63998L12.1397 7.99698C12.2103 8.06772 12.2944 8.12362 12.387 8.16139C12.4795 8.19915 12.5787 8.21804 12.6787 8.21692C12.7787 8.2158 12.8774 8.19471 12.9691 8.15487C13.0608 8.11504 13.1436 8.05728 13.2127 7.98498L14.5467 6.63998C15.282 5.95556 16.2541 5.583 17.2585 5.60067C18.2629 5.61834 19.2213 6.02487 19.932 6.73474C20.6428 7.44461 21.0506 8.40249 21.0695 9.40686C21.0885 10.4112 20.7182 11.3838 20.0347 12.12Z" fill="black"/>
</svg>
