<svg width="24" height="25" viewBox="0 0 24 25" fill="none" xmlns="http://www.w3.org/2000/svg">
<path d="M10 3.25C11.3701 3.24983 12.7122 3.63789 13.8708 4.36922C15.0294 5.10054 15.957 6.14519 16.5462 7.38212C17.1354 8.61905 17.3621 9.99762 17.1999 11.3581C17.0378 12.7186 16.4934 14.0052 15.63 15.069L20.53 19.969C20.6645 20.1027 20.7435 20.2823 20.7509 20.4718C20.7582 20.6613 20.6936 20.8466 20.5699 20.9903C20.4462 21.1341 20.2726 21.2256 20.0841 21.2465C19.8956 21.2674 19.7062 21.2161 19.554 21.103L19.47 21.03L14.569 16.13C13.6679 16.8611 12.6044 17.3653 11.468 17.6C10.3316 17.8348 9.15546 17.7934 8.03838 17.4793C6.9213 17.1651 5.89595 16.5874 5.0485 15.7947C4.20104 15.002 3.55625 14.0175 3.16829 12.9238C2.78034 11.8302 2.66057 10.6594 2.81904 9.50989C2.97751 8.36035 3.4096 7.26565 4.079 6.31778C4.74839 5.3699 5.63552 4.59655 6.66585 4.06272C7.69618 3.52889 8.83959 3.25018 10 3.25ZM10 4.75C9.2449 4.75 8.4972 4.89873 7.79957 5.18769C7.10195 5.47666 6.46808 5.9002 5.93414 6.43414C5.4002 6.96807 4.97666 7.60195 4.6877 8.29957C4.39873 8.99719 4.25 9.7449 4.25 10.5C4.25 11.2551 4.39873 12.0028 4.6877 12.7004C4.97666 13.3981 5.4002 14.0319 5.93414 14.5659C6.46808 15.0998 7.10195 15.5233 7.79957 15.8123C8.4972 16.1013 9.2449 16.25 10 16.25C11.525 16.25 12.9875 15.6442 14.0659 14.5659C15.1442 13.4875 15.75 12.025 15.75 10.5C15.75 8.97501 15.1442 7.51247 14.0659 6.43414C12.9875 5.3558 11.525 4.75 10 4.75Z" fill="black"/>
</svg>
