<svg width="18" height="18" viewBox="0 0 18 18" fill="none" xmlns="http://www.w3.org/2000/svg">
<path d="M9.615 4.185L9 4.8015L8.382 4.1835C7.62593 3.42754 6.60053 3.00288 5.53136 3.00295C4.46219 3.00302 3.43684 3.42781 2.68087 4.18388C1.92491 4.93994 1.50025 5.96535 1.50032 7.03452C1.50039 8.10369 1.92518 9.12904 2.68125 9.885L8.6025 15.8063C8.70797 15.9116 8.85094 15.9708 9 15.9708C9.14906 15.9708 9.29203 15.9116 9.3975 15.8063L15.324 9.8835C16.0792 9.12737 16.5033 8.10238 16.5031 7.03372C16.503 5.96507 16.0786 4.94018 15.3232 4.18425C14.9485 3.80928 14.5036 3.51183 14.0139 3.30888C13.5241 3.10594 12.9992 3.00148 12.4691 3.00148C11.939 3.00148 11.4141 3.10594 10.9244 3.30888C10.4347 3.51183 9.98972 3.81003 9.615 4.185ZM14.526 9.09L9 14.6138L3.47625 9.09C3.20402 8.82066 2.98771 8.50017 2.83975 8.14695C2.69179 7.79373 2.6151 7.41476 2.61408 7.0318C2.61306 6.64885 2.68773 6.26947 2.83381 5.91547C2.97989 5.56147 3.1945 5.23983 3.46529 4.96904C3.73608 4.69825 4.05772 4.48365 4.41172 4.33757C4.76571 4.19149 5.14509 4.11681 5.52805 4.11783C5.911 4.11885 6.28998 4.19554 6.64319 4.3435C6.99641 4.49147 7.3169 4.70778 7.58625 4.98L8.60475 5.99775C8.65774 6.05081 8.7208 6.09273 8.79023 6.12105C8.85965 6.14938 8.93404 6.16354 9.00902 6.1627C9.084 6.16186 9.15805 6.14604 9.22683 6.11617C9.2956 6.0863 9.35771 6.04298 9.4095 5.98875L10.41 4.98C10.9615 4.46668 11.6906 4.18726 12.4439 4.20052C13.1971 4.21377 13.9159 4.51867 14.449 5.05107C14.9821 5.58348 15.2879 6.30188 15.3021 7.05516C15.3164 7.80843 15.0386 8.53787 14.526 9.09Z" fill="black"/>
</svg>
