<svg width="24" height="24" viewBox="0 0 24 24" fill="none" xmlns="http://www.w3.org/2000/svg">
<path d="M12.012 2.25C12.746 2.258 13.477 2.343 14.194 2.503C14.3465 2.53705 14.4846 2.6179 14.589 2.73426C14.6933 2.85062 14.7587 2.99667 14.776 3.152L14.946 4.679C14.97 4.89428 15.0442 5.10093 15.1626 5.28231C15.2811 5.46368 15.4404 5.61473 15.6279 5.72329C15.8153 5.83185 16.0256 5.89489 16.2419 5.90735C16.4582 5.9198 16.6743 5.88132 16.873 5.795L18.273 5.18C18.4152 5.11735 18.5734 5.10044 18.7257 5.13161C18.878 5.16278 19.0168 5.24049 19.123 5.354C20.1353 6.43501 20.8892 7.73153 21.328 9.146C21.3739 9.29474 21.3723 9.45406 21.3236 9.60189C21.2749 9.74971 21.1813 9.87871 21.056 9.971L19.815 10.887C19.6402 11.0152 19.498 11.1827 19.4 11.3761C19.3019 11.5695 19.2509 11.7832 19.2509 12C19.2509 12.2168 19.3019 12.4305 19.4 12.6239C19.498 12.8173 19.6402 12.9848 19.815 13.113L21.058 14.028C21.1835 14.1204 21.2772 14.2495 21.3259 14.3976C21.3747 14.5456 21.3761 14.7051 21.33 14.854C20.8913 16.2683 20.1378 17.5648 19.126 18.646C19.02 18.7595 18.8814 18.8372 18.7293 18.8686C18.5773 18.8999 18.4192 18.8833 18.277 18.821L16.871 18.204C16.6726 18.117 16.4565 18.0779 16.2402 18.09C16.0239 18.102 15.8134 18.1648 15.6259 18.2733C15.4384 18.3817 15.279 18.5328 15.1607 18.7143C15.0424 18.8958 14.9685 19.1026 14.945 19.318L14.775 20.844C14.758 20.9975 14.6941 21.142 14.5919 21.2578C14.4897 21.3736 14.3542 21.4551 14.204 21.491C12.7556 21.8356 11.2465 21.8356 9.798 21.491C9.6476 21.4553 9.51193 21.3739 9.40953 21.2581C9.30714 21.1423 9.24304 20.9976 9.226 20.844L9.057 19.32C9.03245 19.1053 8.9579 18.8994 8.83934 18.7187C8.72077 18.5381 8.56149 18.3877 8.3743 18.2798C8.1871 18.1718 7.97719 18.1093 7.76145 18.0972C7.5457 18.0851 7.33011 18.1237 7.132 18.21L5.726 18.826C5.58366 18.8885 5.4254 18.9053 5.27312 18.8739C5.12084 18.8426 4.98207 18.7647 4.876 18.651C3.86407 17.5685 3.11084 16.2706 2.673 14.855C2.6269 14.7061 2.62832 14.5466 2.67706 14.3986C2.72581 14.2505 2.81946 14.1214 2.945 14.029L4.188 13.113C4.36285 12.9848 4.50504 12.8173 4.60305 12.6239C4.70106 12.4305 4.75214 12.2168 4.75214 12C4.75214 11.7832 4.70106 11.5695 4.60305 11.3761C4.50504 11.1827 4.36285 11.0152 4.188 10.887L2.945 9.973C2.81946 9.88065 2.72581 9.75148 2.67706 9.60345C2.62832 9.45542 2.6269 9.29588 2.673 9.147C3.11182 7.73253 3.86573 6.43601 4.878 5.355C4.98419 5.24149 5.12301 5.16378 5.27529 5.13261C5.42756 5.10144 5.58576 5.11835 5.728 5.181L7.128 5.796C7.32702 5.88227 7.5435 5.92066 7.76005 5.90809C7.9766 5.89551 8.18718 5.83232 8.37487 5.7236C8.56257 5.61487 8.72215 5.46363 8.84079 5.28204C8.95943 5.10045 9.03383 4.89356 9.058 4.678L9.228 3.152C9.24516 2.99635 9.31061 2.84998 9.41516 2.73341C9.51971 2.61684 9.65813 2.53592 9.811 2.502C10.534 2.34221 11.2716 2.25776 12.012 2.25ZM12.012 3.75C11.5584 3.75533 11.1058 3.79444 10.658 3.867L10.548 4.844C10.498 5.2933 10.3431 5.72457 10.0958 6.10305C9.8486 6.48152 9.51589 6.79662 9.12454 7.02294C8.73319 7.24927 8.29415 7.38049 7.84279 7.40603C7.39143 7.43158 6.94039 7.35073 6.526 7.17L5.627 6.776C5.05544 7.46989 4.6005 8.25209 4.28 9.092L5.077 9.679C5.44128 9.94659 5.73748 10.2961 5.94167 10.6994C6.14585 11.1026 6.2523 11.5483 6.2524 12.0002C6.25249 12.4522 6.14624 12.8979 5.94223 13.3012C5.73821 13.7046 5.44216 14.0543 5.078 14.322L4.279 14.91C4.599 15.752 5.055 16.536 5.627 17.232L6.532 16.835C6.94549 16.6545 7.39559 16.5735 7.84608 16.5987C8.29656 16.6239 8.73483 16.7545 9.12562 16.98C9.51641 17.2055 9.84879 17.5196 10.096 17.897C10.3432 18.2745 10.4984 18.7047 10.549 19.153L10.658 20.137C11.548 20.287 12.457 20.287 13.346 20.137L13.456 19.153C13.5058 18.7041 13.6604 18.2732 13.9074 17.895C14.1544 17.5169 14.4869 17.2021 14.8779 16.9761C15.269 16.7501 15.7077 16.6192 16.1587 16.594C16.6096 16.5688 17.0602 16.65 17.474 16.831L18.378 17.227C18.95 16.5325 19.4053 15.7496 19.726 14.909L18.928 14.321C18.5635 14.0535 18.2672 13.704 18.0628 13.3008C17.8585 12.8975 17.752 12.4518 17.7519 11.9998C17.7518 11.5477 17.8581 11.1019 18.0623 10.6986C18.2664 10.2952 18.5627 9.94562 18.927 9.678L19.724 9.091C19.4033 8.25068 18.948 7.46812 18.376 6.774L17.479 7.167C17.0648 7.34835 16.6137 7.42974 16.1622 7.40461C15.7106 7.37949 15.2714 7.24853 14.8798 7.02233C14.4882 6.79613 14.1554 6.48103 13.908 6.10245C13.6607 5.72388 13.5059 5.29245 13.456 4.843L13.347 3.867C12.9059 3.79489 12.459 3.75578 12.012 3.75ZM12 8.25C12.9946 8.25 13.9484 8.64509 14.6517 9.34835C15.3549 10.0516 15.75 11.0054 15.75 12C15.75 12.9946 15.3549 13.9484 14.6517 14.6517C13.9484 15.3549 12.9946 15.75 12 15.75C11.0054 15.75 10.0516 15.3549 9.34835 14.6517C8.64509 13.9484 8.25 12.9946 8.25 12C8.25 11.0054 8.64509 10.0516 9.34835 9.34835C10.0516 8.64509 11.0054 8.25 12 8.25ZM12 9.75C11.4033 9.75 10.831 9.98705 10.409 10.409C9.98705 10.831 9.75 11.4033 9.75 12C9.75 12.5967 9.98705 13.169 10.409 13.591C10.831 14.0129 11.4033 14.25 12 14.25C12.5967 14.25 13.169 14.0129 13.591 13.591C14.0129 13.169 14.25 12.5967 14.25 12C14.25 11.4033 14.0129 10.831 13.591 10.409C13.169 9.98705 12.5967 9.75 12 9.75Z" fill="black"/>
</svg>
